<?xml version="1.0" standalone="no"?>
<!DOCTYPE svg PUBLIC "-//W3C//DTD SVG 20010904//EN"
 "http://www.w3.org/TR/2001/REC-SVG-20010904/DTD/svg10.dtd">
<svg version="1.0" xmlns="http://www.w3.org/2000/svg"
 width="512.000000pt" height="512.000000pt" viewBox="0 0 512.000000 512.000000"
 preserveAspectRatio="xMidYMid meet">
<metadata>
Created by potrace 1.11, written by Peter Selinger 2001-2013
</metadata>
<g transform="translate(0.000000,512.000000) scale(0.100000,-0.100000)"
fill="#000000" stroke="none">
<path d="M10 2560 l0 -2560 888 2 887 3 -2 23 c-2 12 2 22 8 22 6 0 9 7 5 15
-4 11 2 15 22 16 15 1 44 2 64 3 28 2 38 -1 38 -12 0 -13 3 -13 18 1 10 10 26
17 35 17 9 0 38 7 64 16 l48 16 32 -37 c18 -21 33 -44 33 -51 0 -6 6 -14 14
-17 8 -3 150 -9 316 -13 l301 -7 -6 25 c-5 21 0 32 30 61 31 30 36 42 38 86 1
28 6 50 11 48 5 -2 23 -43 40 -92 30 -83 34 -90 71 -107 38 -16 105 -17 1093
-18 l1052 0 0 2560 0 2560 -840 0 -840 0 0 -431 c0 -426 0 -431 -20 -426 -11
3 -23 1 -26 -5 -3 -5 -13 -6 -23 -2 -30 14 -185 22 -200 10 -10 -8 -18 -5 -31
12 -10 12 -25 22 -32 22 -20 0 -72 67 -88 113 -8 20 -17 37 -21 37 -4 0 -5 10
-2 23 4 21 4 22 -11 3 -16 -19 -16 -19 -16 6 0 14 -6 31 -14 37 -20 17 -48
103 -37 114 5 5 4 16 -5 26 -7 9 -24 32 -37 51 -12 19 -30 36 -39 38 -13 2 -4
-21 33 -95 53 -108 78 -200 62 -235 -9 -20 -10 -19 -27 18 -32 72 -80 159 -93
173 -8 7 -12 20 -9 27 3 7 0 11 -7 8 -7 -2 -20 9 -30 26 -17 28 -17 29 -1 23
22 -8 9 15 -19 36 -10 7 -16 20 -13 28 3 8 2 12 -3 9 -5 -3 -21 6 -37 19 -16
14 -32 25 -35 25 -3 0 -11 11 -17 25 -6 14 -19 25 -28 25 -9 0 -29 9 -45 21
-23 16 -29 17 -29 5 0 -21 -18 -30 -36 -16 -11 10 -12 16 -3 26 21 25 0 14
-31 -16 -38 -38 -50 -38 -50 -1 0 27 -2 28 -32 22 -23 -5 -34 -14 -39 -34 -4
-15 -5 -27 -3 -27 3 0 -9 -20 -25 -44 -17 -25 -33 -55 -35 -68 -3 -13 -5 -23
-7 -23 -5 0 -27 -214 -29 -290 -2 -46 -5 -40 -16 30 -7 44 -9 34 -14 -75 -4
-69 -3 -141 1 -160 10 -42 11 -264 2 -411 -5 -94 -3 -109 15 -145 l21 -39 -1
70 c-3 97 13 305 23 311 5 3 9 3 9 1 0 -5 23 -128 41 -217 15 -73 37 -136 67
-187 23 -41 42 -55 42 -33 0 7 6 7 20 0 11 -6 20 -20 20 -32 0 -18 -2 -19 -17
-7 -10 7 -3 -2 15 -19 27 -26 33 -39 31 -65 -5 -54 20 -118 67 -170 24 -27 44
-53 44 -58 0 -10 -43 -2 -72 12 -23 12 -28 11 -28 -5 0 -8 -17 -18 -37 -24
-31 -8 -14 -10 93 -11 l131 -1 54 52 c49 47 56 60 67 117 7 35 17 71 21 80 18
35 34 88 38 124 6 48 19 55 49 26 31 -29 30 -36 -6 -33 -16 1 -30 -3 -30 -8 0
-6 9 -8 20 -5 11 3 20 1 20 -5 0 -6 7 -8 15 -5 8 4 25 -7 41 -26 31 -36 90
-154 69 -137 -22 18 -18 4 11 -45 14 -25 23 -49 20 -54 -8 -12 -66 19 -66 36
0 7 -8 17 -17 22 -15 9 -14 10 10 11 15 0 27 5 27 10 0 6 -16 10 -35 10 -21 0
-35 5 -35 13 0 7 -18 13 -48 15 -41 2 -52 -1 -75 -24 -15 -15 -27 -32 -27 -38
0 -19 17 -39 27 -33 6 4 8 -4 5 -19 -3 -18 -10 -24 -22 -21 -21 5 -61 -23 -42
-30 6 -3 10 -9 6 -14 -3 -5 51 -9 130 -9 106 0 138 -3 150 -15 8 -8 19 -15 25
-15 14 0 14 -3 -1 -34 -6 -14 -19 -28 -28 -31 -10 -3 -20 -15 -23 -25 -6 -24
-3 -25 18 -3 24 23 50 5 49 -33 -3 -50 -37 -239 -46 -248 -5 -6 -13 -3 -22 9
-13 18 -13 18 -25 -1 -8 -13 -14 -15 -17 -7 -4 9 -11 10 -23 4 -10 -6 -23 -6
-32 0 -20 13 -29 11 -29 -6 0 -8 -10 -19 -22 -26 -18 -10 -24 -8 -39 12 -15
20 -21 22 -37 12 -22 -13 -44 1 -36 22 7 17 -16 31 -25 16 -4 -6 -22 -13 -39
-14 l-31 -2 31 -32 c18 -18 38 -33 45 -33 8 0 13 -12 13 -29 0 -16 6 -32 13
-34 20 -9 -14 -27 -50 -27 -35 0 -43 16 -17 34 16 12 9 51 -7 40 -5 -3 -9 2
-9 10 0 9 -6 13 -14 10 -8 -3 -21 5 -30 18 l-16 23 -41 -43 c-35 -35 -38 -42
-21 -42 11 0 27 -3 36 -6 14 -5 14 -8 -1 -30 -9 -14 -22 -23 -29 -20 -19 7
-18 -19 1 -34 12 -10 19 -10 27 -2 17 17 28 15 28 -7 0 -27 65 -57 94 -43 11
6 52 12 89 14 60 4 68 2 64 -13 -6 -24 59 -24 73 0 7 13 13 14 27 5 13 -8 18
-25 19 -61 1 -27 6 -58 12 -69 8 -15 7 -39 -5 -90 -8 -38 -19 -73 -24 -78 -5
-6 -9 -19 -9 -30 0 -12 -7 -30 -15 -40 -8 -11 -15 -29 -15 -39 0 -22 -57 -233
-69 -257 -15 -30 -51 -178 -66 -275 -8 -55 -23 -129 -34 -165 l-18 -65 -39 2
c-165 10 -350 4 -385 -11 -10 -4 -35 7 -70 30 -68 46 -65 44 -54 52 18 13 46
72 40 82 -4 6 -1 17 5 25 9 11 10 19 1 28 -8 11 -3 19 26 38 20 13 39 30 41
38 3 8 -12 2 -34 -13 -21 -14 -50 -26 -64 -26 -44 0 -100 47 -100 83 0 10 -7
25 -15 33 -15 15 -18 41 -17 124 l1 45 -12 -43 c-7 -24 -15 -41 -17 -38 -3 3
-6 -7 -5 -22 0 -16 -5 -27 -14 -27 -8 0 -16 -6 -19 -13 -2 -7 2 -11 10 -10 18
4 11 -43 -9 -59 -9 -7 -13 -19 -10 -27 3 -8 -1 -22 -8 -33 -13 -16 -14 -16
-15 -2 0 9 -7 16 -16 15 -9 0 -21 7 -27 16 -9 14 -8 21 6 35 10 11 17 13 17 5
0 -7 7 -12 15 -12 16 0 19 20 9 58 -4 14 -12 21 -20 18 -11 -4 -13 3 -8 37 3
23 10 52 16 64 14 28 -4 53 -38 53 -12 0 -26 5 -30 11 -4 8 -12 2 -21 -16 -11
-20 -12 -30 -4 -38 14 -14 14 -72 1 -98 -8 -13 -7 -19 0 -19 6 0 6 -7 -2 -20
-9 -14 -14 -16 -20 -7 -5 8 -8 4 -8 -11 0 -13 4 -21 9 -17 5 3 12 1 16 -5 4
-6 11 -7 17 -4 8 5 9 1 5 -10 -4 -10 -7 -23 -7 -29 -1 -8 -5 -6 -13 3 -14 17
-56 25 -58 10 -4 -31 1 -24 -69 -95 -13 -14 -39 -28 -56 -31 -30 -5 -160 14
-245 36 -20 6 -58 10 -84 10 -52 0 -154 24 -196 46 -47 24 -50 50 -49 458 0
208 2 381 5 384 3 3 35 4 72 3 82 -3 81 4 -1 12 -33 3 -63 11 -67 19 -5 7 -8
202 -8 433 0 264 4 412 9 397 5 -12 22 -34 37 -48 30 -28 25 -50 -15 -69 -19
-8 -22 -18 -22 -63 0 -45 3 -53 16 -48 9 3 55 6 104 6 l88 0 -19 38 c-11 20
-27 37 -36 37 -25 0 -27 22 -1 28 14 4 29 0 41 -10 15 -14 22 -15 38 -5 15 10
24 9 40 0 17 -10 23 -10 26 0 6 17 23 15 23 -3 0 -11 8 -13 33 -8 17 3 35 11
39 17 13 18 9 36 -7 36 -17 0 -20 16 -6 24 27 17 63 -33 42 -58 -15 -18 -4
-44 22 -52 12 -4 25 -11 28 -15 10 -17 126 -22 173 -8 44 13 71 39 40 39 -8 0
-12 -4 -9 -10 7 -11 -9 -13 -42 -4 -25 7 -41 53 -22 65 6 4 9 14 6 23 -4 9 -2
16 3 16 6 0 10 5 10 10 0 6 -10 8 -24 4 -17 -4 -25 0 -31 13 -7 16 -9 15 -15
-7 -5 -19 -2 -29 14 -42 30 -24 13 -33 -28 -14 -19 9 -47 16 -64 16 -32 0 -58
22 -47 40 7 11 -15 70 -26 70 -4 0 -10 -7 -13 -16 -6 -16 -8 -16 -24 0 -23 20
-52 21 -52 1 0 -9 -7 -18 -15 -21 -8 -3 -17 -14 -20 -25 -6 -19 -35 -27 -35
-10 0 15 -41 24 -53 12 -19 -19 -28 -12 -15 10 10 17 10 23 1 26 -7 3 -13 13
-13 24 0 12 -7 19 -20 19 -14 0 -20 7 -20 24 0 26 -20 39 -45 30 -8 -4 -15 -1
-15 4 0 16 -37 24 -57 14 -17 -10 -18 26 -18 819 l0 829 -572 0 -573 0 0
-2560z m2541 1672 c-7 -2 -18 1 -23 6 -8 8 -4 9 13 5 13 -4 18 -8 10 -11z
m-143 -171 c7 -21 12 -47 12 -59 0 -23 17 -32 68 -33 l37 -1 -35 -12 c-53 -17
-65 -27 -49 -37 8 -5 23 -9 33 -9 22 0 45 -27 46 -52 0 -21 -11 -23 -28 -6
-17 17 -15 -4 3 -28 19 -25 19 -48 0 -40 -18 7 -18 4 -2 -37 8 -18 12 -38 9
-45 -2 -7 4 -19 13 -26 24 -17 11 -36 -25 -36 -27 0 -105 54 -123 87 -8 13 -4
87 6 138 3 11 5 68 6 128 0 59 5 107 9 107 5 0 14 -17 20 -39z m622 -91 c0 -5
-4 -10 -10 -10 -5 0 -10 5 -10 10 0 6 5 10 10 10 6 0 10 -4 10 -10z m35 -28
c-3 -3 -11 0 -18 7 -9 10 -8 11 6 5 10 -3 15 -9 12 -12z m-525 -22 c0 -5 -4
-10 -10 -10 -5 0 -10 5 -10 10 0 6 5 10 10 10 6 0 10 -4 10 -10z m108 -63 c-1
-29 12 -67 23 -67 5 0 9 -6 9 -12 -1 -20 -50 41 -50 62 0 10 -3 26 -6 34 -5
12 -2 15 9 10 9 -3 16 -15 15 -27z m477 -17 c3 -5 1 -10 -4 -10 -6 0 -11 5
-11 10 0 6 2 10 4 10 3 0 8 -4 11 -10z m-1790 -489 c3 -5 -4 -16 -16 -25 -12
-8 -18 -19 -14 -25 3 -6 2 -11 -4 -11 -19 0 -22 20 -7 36 9 8 16 20 16 25 0
12 17 12 25 0z m122 -77 c-3 -3 -12 -4 -19 -1 -8 3 -5 6 6 6 11 1 17 -2 13 -5z
m223 -34 c0 -5 -9 -10 -20 -10 -11 0 -20 5 -20 10 0 6 9 10 20 10 11 0 20 -4
20 -10z m1580 -256 c0 -35 -17 -30 -18 6 0 17 4 28 9 25 5 -4 9 -17 9 -31z
m-8 -253 c-3 -39 -8 -51 -20 -51 -12 0 -13 3 -5 8 7 5 11 32 9 77 -2 58 -1 66
8 44 6 -15 9 -50 8 -78z m-200 17 c-7 -7 -12 -8 -12 -2 0 6 3 14 7 17 3 4 9 5
12 2 2 -3 -1 -11 -7 -17z m-398 -17 c3 -5 -1 -14 -9 -21 -13 -10 -15 -9 -15 9
0 21 14 28 24 12z m171 0 c3 -5 1 -12 -5 -16 -5 -3 -10 1 -10 9 0 18 6 21 15
7z m165 -26 c0 -8 -4 -15 -10 -15 -5 0 -10 7 -10 15 0 8 5 15 10 15 6 0 10 -7
10 -15z m30 -5 c0 -5 -4 -10 -10 -10 -5 0 -10 5 -10 10 0 6 5 10 10 10 6 0 10
-4 10 -10z m-80 -75 c0 -8 0 -18 1 -22 0 -4 -4 -9 -9 -11 -5 -1 -9 9 -9 23 0
14 3 25 8 25 5 0 9 -7 9 -15z m226 -226 c19 -18 20 -24 10 -53 -6 -18 -18 -43
-27 -56 -14 -21 -17 -22 -44 -9 -46 23 -69 61 -61 104 11 58 68 65 122 14z
m-1156 -659 c0 -11 -2 -20 -4 -20 -2 0 -6 9 -9 20 -3 11 -1 20 4 20 5 0 9 -9
9 -20z m104 -61 c-3 -5 -14 -9 -25 -9 -16 0 -18 3 -7 19 9 15 16 17 25 9 7 -5
10 -14 7 -19z m1061 -214 c20 -143 21 -136 -17 -128 -18 3 -37 9 -42 14 -9 8
19 201 31 222 9 15 12 2 28 -108z m-1474 -1026 c15 -10 32 -19 38 -19 6 0 10
-3 9 -7 0 -5 2 -15 5 -23 13 -33 27 -97 27 -126 0 -17 3 -34 8 -38 7 -8 8 -13
11 -41 1 -11 13 -15 40 -15 49 0 71 -8 71 -25 0 -20 -15 -26 -73 -32 -29 -2
-56 -10 -61 -18 -8 -11 -15 -11 -40 0 -62 26 -81 35 -101 47 -11 7 -22 14 -24
15 -2 1 9 17 24 34 21 26 25 39 21 63 -3 17 -7 62 -10 99 -2 38 -8 73 -15 80
-6 6 -11 17 -11 25 0 18 43 8 81 -19z m-794 -35 c16 -3 32 -23 53 -65 27 -52
66 -98 152 -175 13 -11 39 -38 58 -60 19 -21 44 -44 55 -50 11 -7 18 -14 15
-17 -3 -3 -57 -1 -120 3 -135 10 -209 35 -259 86 l-34 35 26 27 c33 34 33 47
3 109 -13 26 -27 64 -30 84 -6 35 -6 36 26 32 18 -2 43 -6 55 -9z m2063 -134
c0 -5 -5 -10 -11 -10 -5 0 -7 5 -4 10 3 6 8 10 11 10 2 0 4 -4 4 -10z m-834
-27 c-10 -10 -19 5 -10 18 6 11 8 11 12 0 2 -7 1 -15 -2 -18z"/>
<path d="M2952 4597 c2 -15 8 -26 13 -25 12 3 8 29 -7 43 -6 7 -8 1 -6 -18z"/>
<path d="M2216 4568 c-3 -13 -5 -32 -5 -43 1 -11 5 -2 10 19 10 42 6 62 -5 24z"/>
<path d="M1924 3305 c-3 -8 -3 -19 1 -25 11 -17 35 -11 35 9 0 23 -29 36 -36
16z"/>
<path d="M2093 3303 c-17 -6 -16 -41 1 -58 12 -12 15 -12 20 1 15 38 4 66 -21
57z"/>
<path d="M2500 3260 c0 -5 5 -10 10 -10 6 0 10 5 10 10 0 6 -4 10 -10 10 -5 0
-10 -4 -10 -10z"/>
<path d="M1958 3198 c-16 -5 -28 -16 -28 -24 0 -11 16 -14 65 -14 39 0 65 4
65 11 0 5 -5 7 -11 4 -6 -4 -19 2 -30 14 -22 23 -23 24 -61 9z"/>
<path d="M2353 2871 c-8 -13 -9 -21 0 -30 8 -8 5 -17 -11 -34 -23 -25 -29 -47
-11 -47 5 0 -3 -12 -18 -26 -23 -21 -29 -23 -31 -10 -5 22 -19 20 -27 -3 -11
-36 22 -70 40 -41 9 15 25 12 25 -5 0 -8 9 -24 19 -34 10 -10 22 -28 25 -39 6
-17 2 -21 -21 -25 -18 -3 -11 -5 19 -6 l47 -1 -6 33 c-6 41 12 58 63 60 33 2
37 5 40 31 3 30 -28 81 -49 81 -7 1 -26 -7 -43 -16 -24 -13 -33 -14 -47 -4 -9
6 -13 15 -9 19 4 4 7 13 7 19 0 7 17 12 43 12 46 0 63 14 55 46 -4 13 -14 19
-34 19 -15 0 -31 5 -34 10 -10 16 -29 12 -42 -9z m47 -155 c0 -3 -4 -8 -10
-11 -5 -3 -10 -1 -10 4 0 6 5 11 10 11 6 0 10 -2 10 -4z"/>
<path d="M2290 2810 c0 -5 4 -10 9 -10 6 0 13 5 16 10 3 6 -1 10 -9 10 -9 0
-16 -4 -16 -10z"/>
<path d="M2860 2540 c0 -5 5 -10 10 -10 6 0 10 5 10 10 0 6 -4 10 -10 10 -5 0
-10 -4 -10 -10z"/>
<path d="M1834 2346 c-10 -26 1 -51 24 -54 17 -3 22 1 22 20 0 39 -35 64 -46
34z"/>
<path d="M1993 2343 c-7 -2 -13 -16 -13 -29 0 -20 5 -24 29 -24 32 0 48 24 30
46 -12 14 -24 16 -46 7z"/>
<path d="M1900 2240 c0 -21 26 -38 38 -25 4 4 1 10 -5 12 -7 3 -13 11 -13 19
0 8 -4 14 -10 14 -5 0 -10 -9 -10 -20z"/>
<path d="M2010 1815 c0 -8 5 -15 10 -15 6 0 10 7 10 15 0 8 -4 15 -10 15 -5 0
-10 -7 -10 -15z"/>
</g>
</svg>
